<svg width="34" height="34" viewBox="0 0 34 34" fill="none" xmlns="http://www.w3.org/2000/svg">
<g clip-path="url(#clip0_609_38)">
<path d="M10.7242 10.5506C10.9143 10.3656 11.17 10.2637 11.4352 10.2673C11.7004 10.2709 11.9533 10.3797 12.1383 10.5698L17.0206 15.586L22.0369 10.7037C22.2269 10.5187 22.4827 10.4168 22.7479 10.4204C23.0131 10.424 23.266 10.5328 23.451 10.7228C23.6359 10.9129 23.7379 11.1687 23.7343 11.4338C23.7307 11.699 23.6219 11.9519 23.4318 12.1369L17.6989 17.7167C17.5089 17.9017 17.2531 18.0036 16.9879 18C16.7227 17.9964 16.4698 17.8876 16.2849 17.6976L10.7051 11.9647C10.5201 11.7746 10.4182 11.5189 10.4218 11.2537C10.4254 10.9885 10.5341 10.7356 10.7242 10.5506Z" fill="black"/>
<path d="M10.6461 16.2069C10.8361 16.0219 11.0919 15.92 11.3571 15.9236C11.6223 15.9272 11.8752 16.0359 12.0602 16.226L16.9425 21.2423L21.9588 16.36C22.1488 16.175 22.4046 16.0731 22.6698 16.0767C22.935 16.0802 23.1879 16.189 23.3728 16.3791C23.5578 16.5691 23.6597 16.8249 23.6561 17.0901C23.6525 17.3553 23.5438 17.6082 23.3537 17.7932L17.6208 23.373C17.4308 23.558 17.175 23.6599 16.9098 23.6563C16.6446 23.6527 16.3917 23.5439 16.2067 23.3538L10.6269 17.621C10.442 17.4309 10.3401 17.1751 10.3436 16.9099C10.3472 16.6448 10.456 16.3919 10.6461 16.2069Z" fill="black"/>
<path d="M10.568 21.8634C10.758 21.6784 11.0138 21.5765 11.279 21.5801C11.5442 21.5837 11.7971 21.6924 11.982 21.8825L16.8644 26.8988L21.8806 22.0165C22.0707 21.8315 22.3264 21.7296 22.5916 21.7332C22.8568 21.7367 23.1097 21.8455 23.2947 22.0356C23.4797 22.2256 23.5816 22.4814 23.578 22.7466C23.5744 23.0118 23.4656 23.2647 23.2756 23.4497L17.5427 29.0295C17.3526 29.2144 17.0969 29.3164 16.8317 29.3128C16.5665 29.3092 16.3136 29.2004 16.1286 29.0103L10.5488 23.2774C10.3638 23.0874 10.2619 22.8316 10.2655 22.5664C10.2691 22.3012 10.3779 22.0483 10.568 21.8634Z" fill="black"/>
</g>
<defs>
<clipPath id="clip0_609_38">
<rect width="24" height="24" fill="white" transform="translate(33.9688 17.2297) rotate(135.775)"/>
</clipPath>
</defs>
</svg>
